<?xml version="1.0" standalone="no"?>
<!DOCTYPE svg PUBLIC "-//W3C//DTD SVG 20010904//EN"
 "http://www.w3.org/TR/2001/REC-SVG-20010904/DTD/svg10.dtd">
<svg version="1.0" xmlns="http://www.w3.org/2000/svg"
 width="710.000000pt" height="710.000000pt" viewBox="0 0 710.000000 710.000000"
 preserveAspectRatio="xMidYMid meet">

<g transform="translate(0.000000,710.000000) scale(0.100000,-0.100000)"
fill="#000000" stroke="none">
<path d="M3020 6895 c0 -4 7 -19 15 -34 24 -48 54 -220 60 -351 l6 -125 -23
30 c-152 196 -290 299 -473 354 -73 22 -195 42 -195 32 0 -3 14 -26 31 -51 57
-84 149 -284 149 -323 0 -6 -30 -27 -66 -46 -178 -92 -308 -257 -368 -465 -30
-103 -33 -131 -11 -99 23 32 132 111 206 149 69 34 155 61 166 51 3 -4 -61
-100 -143 -213 -82 -114 -157 -222 -167 -240 -9 -18 -22 -68 -28 -111 -7 -54
-20 -95 -41 -133 -77 -139 -372 -552 -498 -696 -33 -38 -73 -89 -90 -113 -77
-115 -59 -299 46 -453 68 -101 144 -158 209 -158 51 0 98 25 166 88 33 30 59
49 59 43 0 -5 -16 -54 -35 -108 -26 -73 -32 -99 -22 -105 21 -13 131 -9 187 8
39 12 66 29 106 68 44 45 56 65 75 127 52 175 81 200 479 415 164 88 166 89
236 89 65 0 76 -3 116 -32 l44 -32 74 40 c322 175 442 358 442 669 0 95 -5
144 -21 204 -12 44 -19 81 -17 83 9 9 81 -87 107 -142 104 -219 33 -502 -180
-716 -59 -59 -215 -178 -292 -223 -35 -20 -48 -34 -53 -57 -9 -45 -81 -183
-139 -268 -35 -49 -240 -263 -634 -659 l-583 -586 0 -432 0 -433 68 -3 67 -3
3 -72 3 -73 -71 0 -70 0 0 -90 0 -89 68 -3 67 -3 3 -67 3 -68 -71 0 -70 0 0
-90 0 -89 68 -3 67 -3 3 -72 3 -73 -71 0 -70 0 0 -85 0 -84 68 -3 67 -3 3 -72
3 -73 -71 0 -70 0 0 -62 c2 -167 99 -268 257 -268 l73 0 0 75 0 75 65 0 65 0
0 -77 0 -78 100 3 100 3 0 75 0 74 65 0 65 0 0 -75 0 -75 90 0 89 0 3 73 3 72
68 3 67 3 0 -76 0 -75 95 0 95 0 0 75 0 76 68 -3 67 -3 3 -72 3 -73 67 0 c107
1 190 48 233 133 16 29 19 54 17 110 l-3 72 -65 5 -65 5 0 75 0 75 255 3 255
2 180 -180 179 -179 -17 -48 c-58 -163 47 -323 213 -323 174 0 283 180 205
337 -42 83 -133 137 -222 132 -39 -3 -47 2 -110 60 -37 35 -138 132 -224 217
l-155 154 -282 0 -282 0 0 75 0 75 368 0 369 0 122 -117 c186 -177 133 -158
436 -161 l260 -3 27 -49 c36 -64 99 -102 179 -108 72 -5 121 11 172 57 51 46
77 102 77 168 0 160 -146 275 -300 233 -43 -12 -117 -74 -145 -122 -9 -15 -35
-18 -206 -24 -107 -4 -212 -4 -233 0 -29 6 -64 32 -163 124 -69 64 -141 128
-160 142 l-36 25 -381 5 -381 5 0 75 0 75 448 3 c431 2 450 1 494 -18 38 -17
67 -20 174 -20 l129 0 31 -50 c45 -73 112 -110 199 -110 142 1 230 88 230 227
-1 110 -71 201 -175 224 -104 23 -180 -6 -245 -94 l-35 -47 -118 0 c-111 0
-121 2 -165 28 l-47 27 -460 5 -460 5 -3 72 -3 72 423 3 c512 4 483 -2 623
138 l90 90 242 0 243 0 19 -39 c60 -116 202 -161 320 -102 78 40 121 115 121
211 0 74 -23 124 -80 172 -111 96 -271 69 -346 -57 l-26 -45 -224 0 -224 0 0
319 0 320 98 107 c240 264 303 346 367 478 158 325 92 665 -168 860 -105 79
-333 183 -355 162 -4 -4 -9 -389 -12 -854 -5 -792 -6 -850 -23 -897 -45 -120
-118 -217 -222 -290 -132 -94 -273 -143 -440 -152 -130 -6 -204 5 -292 47
-332 155 -245 606 152 796 204 98 398 98 581 -1 l84 -45 10 25 c6 17 10 398
10 1031 0 895 2 1005 15 1011 21 7 40 -11 150 -142 121 -144 181 -205 354
-361 231 -207 315 -316 370 -480 56 -166 60 -365 11 -540 -10 -38 -17 -71 -14
-73 7 -7 92 182 123 274 49 149 64 271 58 468 -4 139 -10 191 -30 272 -73 286
-216 515 -497 795 -143 143 -251 232 -399 331 -57 38 -98 69 -90 69 38 0 174
-46 264 -89 161 -76 326 -189 478 -324 42 -38 77 -65 77 -61 0 4 -17 46 -37
93 -192 449 -647 827 -1147 951 l-111 28 75 3 c169 9 367 -15 494 -58 38 -12
71 -21 73 -19 7 7 -102 98 -181 150 -220 146 -459 220 -701 219 -131 -1 -237
-19 -330 -57 l-59 -24 -29 44 c-61 93 -170 165 -284 189 -70 15 -123 19 -123
10z m-260 -1349 c0 -2 -13 -33 -29 -69 -52 -115 -136 -187 -220 -187 -30 0
-43 5 -51 19 -41 77 47 192 172 225 50 14 128 21 128 12z m-950 -1128 c27 -29
27 -101 0 -145 -17 -29 -67 -71 -73 -62 -13 20 -37 84 -42 112 -8 43 6 72 48
97 40 25 42 25 67 -2z m555 -1962 c15 -23 21 -138 17 -308 l-2 -58 -42 0 c-93
0 -88 -10 -88 181 0 156 2 171 20 189 28 28 76 26 95 -4z m325 4 c19 -19 20
-31 18 -193 l-3 -172 -62 -3 -63 -3 0 176 c0 162 2 177 20 195 26 26 64 26 90
0z m329 -6 c19 -25 21 -40 21 -189 l0 -163 -66 -4 c-36 -1 -68 1 -71 5 -3 5
-2 84 1 175 5 132 10 170 23 184 24 27 68 23 92 -8z m321 6 c18 -18 20 -33 20
-190 l0 -170 -65 0 -65 0 0 170 c0 157 2 172 20 190 11 11 31 20 45 20 14 0
34 -9 45 -20z m2090 -145 c55 -29 66 -83 25 -128 -32 -34 -79 -36 -112 -5 -37
35 -26 120 19 138 32 12 35 12 68 -5z m-2050 -950 l0 -575 -579 0 -579 0 -7
103 c-3 56 -4 291 -1 522 3 231 6 444 6 473 l0 52 580 0 580 0 0 -575z m1701
346 c36 -36 39 -84 7 -118 -30 -32 -70 -30 -113 8 -38 34 -44 62 -19 97 33 48
84 53 125 13z m287 -561 c49 -35 56 -74 20 -114 -54 -59 -148 -18 -148 64 0
24 51 80 73 80 8 0 33 -14 55 -30z m-735 -591 c71 -37 90 -100 41 -138 -55
-43 -144 -12 -144 51 0 21 10 40 34 64 38 38 39 38 69 23z"/>
<path d="M2465 1705 l-25 -24 0 -314 c0 -303 1 -315 21 -341 l20 -26 320 0
320 0 24 25 25 24 0 316 0 316 -25 24 -24 25 -316 0 -316 0 -24 -25z"/>
</g>
</svg>
